<svg id="Layer_1" data-name="Layer 1" xmlns="http://www.w3.org/2000/svg" viewBox="0 0 123.83 106.79"><defs><style>.cls-1{fill:#0c0c0c;fill-rule:evenodd;}</style></defs><path class="cls-1" d="M260.29,158.66c.92-5.19.9-10.52-2.3-14.55-4.47-5.65-14-5.86-20.5-4.86-5.3.81-23.22,8.72-29.32,27.65,10.81-.82,16.47.78,15.43,12.68-.44,5-2.95,10.43-5.76,15.66-3.24,6-9.32,17.86-17.29,9.33-7.18-7.68-6.64-22.36-8.28-32.14-.92-5.49-1.88-12.33-3.68-18-1.55-4.85-5.1-10.7-9.45-12-4.66-1.37-10.43.77-13.82,2.76-10.78,6.34-19,15.36-28.34,22.8v.7c1.85,1.77,2.35,4.67,5.07,5.06,6.43.95,12.55-6,16.82,1.23,2.6,4.4,3.41,9.23,5.07,14,2.22,6.32,3.94,13.21,5.76,20.49,3.07,12.32,6.86,30.74,17.51,35.25,5.43,2.3,13.6-.78,17.74-3.24,11.2-6.62,19.93-16.24,27.4-26C249.43,192.37,258.86,166.15,260.29,158.66Z" transform="translate(-136.98 -138.79)"/></svg>